<svg width="29" height="29" viewBox="0 0 29 29" fill="none" xmlns="http://www.w3.org/2000/svg">
<path d="M21.1499 0H7.85002C3.52145 0 0 3.52145 0 7.85002V21.1501C0 25.4785 3.52145 28.9999 7.85002 28.9999H21.1501C25.4785 28.9999 28.9999 25.4785 28.9999 21.1501V7.85002C28.9999 3.52145 25.4785 0 21.1499 0V0ZM27.2998 21.1501C27.2998 24.5411 24.5411 27.2998 21.1499 27.2998H7.85002C4.45889 27.2998 1.7001 24.5411 1.7001 21.1501V7.85002C1.7001 4.45889 4.45889 1.7001 7.85002 1.7001H21.1501C24.5411 1.7001 27.2998 4.45889 27.2998 7.85002V21.1501Z" fill="white"/>
<path d="M14.4998 6.57056C10.1274 6.57056 6.57031 10.1276 6.57031 14.5C6.57031 18.8724 10.1274 22.4295 14.4998 22.4295C18.8721 22.4295 22.4292 18.8724 22.4292 14.5C22.4292 10.1276 18.8721 6.57056 14.4998 6.57056ZM14.4998 20.7294C11.065 20.7294 8.27041 17.9349 8.27041 14.5C8.27041 11.0653 11.065 8.27066 14.4998 8.27066C17.9347 8.27066 20.7291 11.0653 20.7291 14.5C20.7291 17.9349 17.9347 20.7294 14.4998 20.7294Z" fill="white"/>
<path d="M22.6184 3.75439C21.3263 3.75439 20.2754 4.80556 20.2754 6.09745C20.2754 7.38956 21.3263 8.44073 22.6184 8.44073C23.9106 8.44073 24.9617 7.38956 24.9617 6.09745C24.9617 4.80534 23.9106 3.75439 22.6184 3.75439ZM22.6184 6.74041C22.264 6.74041 21.9755 6.4519 21.9755 6.09745C21.9755 5.74279 22.264 5.45449 22.6184 5.45449C22.9731 5.45449 23.2616 5.74279 23.2616 6.09745C23.2616 6.4519 22.9731 6.74041 22.6184 6.74041Z" fill="white"/>
</svg>
