<svg width="28" height="28" viewBox="0 0 28 28" fill="none" xmlns="http://www.w3.org/2000/svg">
<path d="M22.128 17.3451C21.5548 16.7482 20.8633 16.4291 20.1306 16.4291C19.4037 16.4291 18.7063 16.7423 18.1095 17.3391L16.242 19.2007C16.0884 19.1179 15.9347 19.0411 15.787 18.9643C15.5743 18.8579 15.3733 18.7574 15.202 18.6511C13.4527 17.5401 11.863 16.0922 10.3384 14.2189C9.59966 13.2852 9.10325 12.4992 8.74277 11.7014C9.22735 11.2582 9.67648 10.7972 10.1138 10.354C10.2793 10.1885 10.4447 10.0172 10.6102 9.85169C11.8512 8.61068 11.8512 7.00327 10.6102 5.76225L8.99688 4.14893C8.81368 3.96574 8.62457 3.77663 8.44729 3.58752C8.09271 3.22113 7.72041 2.84291 7.33628 2.48834C6.76305 1.92102 6.07754 1.61963 5.35657 1.61963C4.6356 1.61963 3.93827 1.92102 3.34731 2.48834C3.3414 2.49425 3.3414 2.49425 3.33549 2.50016L1.32623 4.52715C0.569802 5.28358 0.138402 6.20547 0.0438483 7.27511C-0.0979819 9.00071 0.410243 10.6081 0.800276 11.66C1.75763 14.2425 3.18775 16.6359 5.32111 19.2007C7.90951 22.2914 11.0239 24.732 14.5814 26.4517C15.9406 27.0959 17.7549 27.8582 19.7819 27.9882C19.906 27.9941 20.036 28 20.1542 28C21.5193 28 22.6658 27.5096 23.564 26.5345C23.5699 26.5227 23.5818 26.5167 23.5877 26.5049C23.895 26.1326 24.2495 25.7958 24.6218 25.4353C24.876 25.193 25.136 24.9389 25.3901 24.673C25.9751 24.0643 26.2824 23.3551 26.2824 22.6282C26.2824 21.8954 25.9692 21.1922 25.3724 20.6012L22.128 17.3451ZM24.2436 23.5679C24.2377 23.5679 24.2377 23.5738 24.2436 23.5679C24.0132 23.8161 23.7768 24.0406 23.5227 24.2888C23.1385 24.6552 22.7485 25.0393 22.3821 25.4707C21.7852 26.109 21.082 26.4104 20.1601 26.4104C20.0715 26.4104 19.9769 26.4104 19.8883 26.4045C18.1331 26.2922 16.5021 25.6067 15.2788 25.0216C11.9339 23.4024 8.99688 21.1036 6.55622 18.1901C4.54105 15.7613 3.19366 13.5156 2.30131 11.1045C1.75172 9.63304 1.55079 8.48658 1.63944 7.40512C1.69853 6.7137 1.96447 6.14047 2.45496 5.64997L4.47013 3.6348C4.7597 3.36296 5.067 3.21522 5.36839 3.21522C5.74069 3.21522 6.04208 3.43978 6.23119 3.62889C6.2371 3.6348 6.24301 3.64071 6.24892 3.64662C6.6094 3.98347 6.95216 4.33213 7.31265 4.70444C7.49584 4.89354 7.68495 5.08265 7.87406 5.27767L9.48738 6.89099C10.1138 7.5174 10.1138 8.09654 9.48738 8.72296C9.316 8.89434 9.15053 9.06571 8.97915 9.23118C8.48275 9.73941 8.00998 10.2122 7.49584 10.6731C7.48402 10.6849 7.47221 10.6909 7.4663 10.7027C6.95807 11.2109 7.05262 11.7073 7.159 12.0442C7.16491 12.0619 7.17082 12.0796 7.17673 12.0973C7.59631 13.1138 8.18727 14.0711 9.08552 15.2117L9.09143 15.2176C10.7225 17.2269 12.4422 18.7929 14.3392 19.9926C14.5814 20.1462 14.8296 20.2703 15.066 20.3885C15.2788 20.4949 15.4797 20.5953 15.6511 20.7017C15.6747 20.7135 15.6984 20.7313 15.722 20.7431C15.9229 20.8435 16.112 20.8908 16.307 20.8908C16.7975 20.8908 17.1048 20.5835 17.2053 20.483L19.2264 18.462C19.4273 18.261 19.7464 18.0187 20.1187 18.0187C20.4851 18.0187 20.7865 18.2492 20.9697 18.4501C20.9756 18.4561 20.9756 18.4561 20.9815 18.462L24.2377 21.7182C24.8464 22.3209 24.8464 22.9414 24.2436 23.5679Z" fill="white"/>
<path d="M15.1313 6.66051C16.6796 6.92054 18.0861 7.65332 19.2089 8.77615C20.3317 9.89897 21.0586 11.3055 21.3245 12.8538C21.3896 13.2438 21.7264 13.5156 22.1105 13.5156C22.1578 13.5156 22.1992 13.5097 22.2464 13.5038C22.6838 13.4329 22.9733 13.0192 22.9024 12.5819C22.5833 10.7086 21.6969 9.00071 20.3436 7.64742C18.9903 6.29412 17.2824 5.40768 15.409 5.08856C14.9717 5.01765 14.564 5.30722 14.4872 5.73862C14.4103 6.17002 14.694 6.5896 15.1313 6.66051Z" fill="white"/>
<path d="M27.9671 12.3514C27.4411 9.26658 25.9874 6.45953 23.7535 4.2257C21.5197 1.99188 18.7126 0.538116 15.6278 0.0121628C15.1964 -0.0646619 14.7887 0.230818 14.7118 0.662218C14.6409 1.09953 14.9305 1.50729 15.3678 1.58411C18.1217 2.05097 20.6333 3.35699 22.6307 5.34852C24.6281 7.34597 25.9283 9.85754 26.3951 12.6114C26.4601 13.0014 26.797 13.2733 27.1811 13.2733C27.2284 13.2733 27.2697 13.2674 27.317 13.2615C27.7484 13.1965 28.0439 12.7828 27.9671 12.3514Z" fill="white"/>
</svg>
