<svg width="30" height="21" viewBox="0 0 30 21" fill="none" xmlns="http://www.w3.org/2000/svg">
<path d="M26.4531 0.304688H2.55078C1.14253 0.304688 0.00195312 1.45234 0.00195312 2.85352V18.1465C0.00195312 19.556 1.15091 20.6953 2.55078 20.6953H26.4531C27.8496 20.6953 29.002 19.5608 29.002 18.1465V2.85352C29.002 1.45483 27.8659 0.304688 26.4531 0.304688ZM26.0962 2.00391C25.5754 2.52188 16.6137 11.4364 16.3043 11.7442C15.8228 12.2257 15.1828 12.4907 14.502 12.4907C13.8211 12.4907 13.1811 12.2256 12.6981 11.7426C12.49 11.5356 3.62712 2.7195 2.90773 2.00391H26.0962ZM1.70117 17.8006V3.20044L9.04395 10.5045L1.70117 17.8006ZM2.90881 18.9961L10.2487 11.7029L11.4981 12.9457C12.3005 13.7481 13.3673 14.19 14.502 14.19C15.6366 14.19 16.7034 13.7481 17.5042 12.9473L18.7552 11.7029L26.0951 18.9961H2.90881ZM27.3027 17.8006L19.96 10.5045L27.3027 3.20044V17.8006Z" fill="white"/>
</svg>
