<svg width="29" height="21" viewBox="0 0 29 21" fill="none" xmlns="http://www.w3.org/2000/svg">
<path d="M26.4512 0.304688H2.54883C1.14057 0.304688 0 1.45234 0 2.85352V18.1465C0 19.556 1.14896 20.6953 2.54883 20.6953H26.4512C27.8476 20.6953 29 19.5608 29 18.1465V2.85352C29 1.45483 27.864 0.304688 26.4512 0.304688ZM26.0942 2.00391C25.5735 2.52188 16.6117 11.4364 16.3023 11.7442C15.8209 12.2257 15.1808 12.4907 14.5 12.4907C13.8192 12.4907 13.1791 12.2256 12.6961 11.7426C12.488 11.5356 3.62517 2.7195 2.90578 2.00391H26.0942ZM1.69922 17.8006V3.20044L9.042 10.5045L1.69922 17.8006ZM2.90685 18.9961L10.2467 11.7029L11.4962 12.9457C12.2985 13.7481 13.3653 14.19 14.5 14.19C15.6347 14.19 16.7015 13.7481 17.5022 12.9473L18.7533 11.7029L26.0931 18.9961H2.90685ZM27.3008 17.8006L19.958 10.5045L27.3008 3.20044V17.8006Z" fill="#333333"/>
</svg>
