<svg width="28" height="28" viewBox="0 0 28 28" fill="none" xmlns="http://www.w3.org/2000/svg">
<path d="M22.129 17.345C21.5557 16.7481 20.8643 16.429 20.1315 16.429C19.4046 16.429 18.7073 16.7422 18.1104 17.3391L16.243 19.2006C16.0894 19.1179 15.9357 19.041 15.788 18.9642C15.5752 18.8578 15.3743 18.7574 15.2029 18.651C13.4537 17.54 11.864 16.0922 10.3393 14.2188C9.60063 13.2851 9.10423 12.4991 8.74374 11.7013C9.22833 11.2581 9.67746 10.7972 10.1148 10.3539C10.2802 10.1885 10.4457 10.0171 10.6112 9.85163C11.8522 8.61062 11.8522 7.00321 10.6112 5.76219L8.99786 4.14887C8.81466 3.96568 8.62555 3.77657 8.44826 3.58746C8.09369 3.22107 7.72138 2.84285 7.33726 2.48828C6.76403 1.92096 6.07852 1.61957 5.35755 1.61957C4.63658 1.61957 3.93925 1.92096 3.34829 2.48828C3.34238 2.49419 3.34238 2.49419 3.33647 2.5001L1.32721 4.52709C0.570778 5.28352 0.139378 6.20541 0.0448249 7.27505C-0.0970053 9.00065 0.41122 10.6081 0.801253 11.66C1.75861 14.2425 3.18873 16.6358 5.32209 19.2006C7.91049 22.2913 11.0248 24.732 14.5824 26.4517C15.9416 27.0958 17.7559 27.8582 19.7829 27.9882C19.907 27.9941 20.037 28 20.1552 28C21.5203 28 22.6667 27.5095 23.565 26.5344C23.5709 26.5226 23.5827 26.5167 23.5886 26.5049C23.8959 26.1326 24.2505 25.7957 24.6228 25.4352C24.8769 25.1929 25.137 24.9388 25.3911 24.6729C25.9761 24.0642 26.2834 23.355 26.2834 22.6282C26.2834 21.8954 25.9702 21.1921 25.3733 20.6012L22.129 17.345ZM24.2446 23.5678C24.2387 23.5678 24.2387 23.5737 24.2446 23.5678C24.0141 23.816 23.7777 24.0406 23.5236 24.2888C23.1395 24.6552 22.7495 25.0393 22.3831 25.4707C21.7862 26.1089 21.083 26.4103 20.1611 26.4103C20.0724 26.4103 19.9779 26.4103 19.8892 26.4044C18.1341 26.2921 16.503 25.6066 15.2798 25.0216C11.9349 23.4023 8.99786 21.1035 6.5572 18.1901C4.54202 15.7612 3.19464 13.5156 2.30229 11.1045C1.7527 9.63298 1.55177 8.48651 1.64041 7.40506C1.69951 6.71364 1.96544 6.14041 2.45594 5.64991L4.47111 3.63474C4.76068 3.3629 5.06798 3.21516 5.36937 3.21516C5.74167 3.21516 6.04306 3.43972 6.23217 3.62883C6.23808 3.63474 6.24399 3.64065 6.2499 3.64656C6.61038 3.98341 6.95314 4.33207 7.31362 4.70438C7.49682 4.89348 7.68593 5.08259 7.87503 5.27761L9.48835 6.89092C10.1148 7.51734 10.1148 8.09648 9.48835 8.7229C9.31697 8.89428 9.15151 9.06565 8.98013 9.23112C8.48372 9.73935 8.01095 10.2121 7.49682 10.6731C7.485 10.6849 7.47318 10.6908 7.46727 10.7026C6.95905 11.2108 7.0536 11.7072 7.15997 12.0441C7.16588 12.0618 7.17179 12.0795 7.1777 12.0973C7.59728 13.1137 8.18824 14.0711 9.0865 15.2116L9.09241 15.2175C10.7235 17.2268 12.4431 18.7928 14.3401 19.9925C14.5824 20.1461 14.8306 20.2702 15.067 20.3884C15.2798 20.4948 15.4807 20.5953 15.6521 20.7016C15.6757 20.7135 15.6993 20.7312 15.723 20.743C15.9239 20.8435 16.113 20.8907 16.308 20.8907C16.7985 20.8907 17.1058 20.5835 17.2063 20.483L19.2274 18.4619C19.4283 18.261 19.7474 18.0187 20.1197 18.0187C20.4861 18.0187 20.7875 18.2492 20.9707 18.4501C20.9766 18.456 20.9766 18.456 20.9825 18.4619L24.2387 21.7181C24.8474 22.3209 24.8474 22.9414 24.2446 23.5678Z" fill="#333333"/>
<path d="M15.1323 6.66048C16.6806 6.92051 18.0871 7.65329 19.2099 8.77612C20.3327 9.89894 21.0596 11.3054 21.3255 12.8537C21.3905 13.2438 21.7274 13.5156 22.1115 13.5156C22.1588 13.5156 22.2001 13.5097 22.2474 13.5038C22.6847 13.4329 22.9743 13.0192 22.9034 12.5819C22.5843 10.7086 21.6978 9.00068 20.3445 7.64739C18.9912 6.29409 17.2834 5.40765 15.41 5.08853C14.9727 5.01762 14.565 5.30719 14.4881 5.73859C14.4113 6.16999 14.695 6.58957 15.1323 6.66048Z" fill="#333333"/>
<path d="M27.968 12.3514C27.4421 9.26655 25.9883 6.4595 23.7545 4.22567C21.5207 1.99185 18.7136 0.538086 15.6288 0.0121323C15.1974 -0.0646924 14.7896 0.230787 14.7128 0.662187C14.6419 1.0995 14.9315 1.50726 15.3688 1.58408C18.1227 2.05094 20.6342 3.35696 22.6317 5.34849C24.6291 7.34594 25.9292 9.85751 26.3961 12.6114C26.4611 13.0014 26.7979 13.2733 27.1821 13.2733C27.2293 13.2733 27.2707 13.2673 27.318 13.2614C27.7494 13.1964 28.0449 12.7828 27.968 12.3514Z" fill="#333333"/>
</svg>
